<?xml version="1.0" encoding="utf-8"?>
<!-- Generator: Adobe Illustrator 22.1.0, SVG Export Plug-In . SVG Version: 6.00 Build 0)  -->
<svg version="1.1" id="Layer_1" xmlns="http://www.w3.org/2000/svg" xmlns:xlink="http://www.w3.org/1999/xlink" x="0px" y="0px"
	 viewBox="0 0 512 512" style="enable-background:new 0 0 512 512;" xml:space="preserve">
<g>
	<path d="M432.8,31H79.2C52.6,31,31,52.6,31,79.2v353.6c0,26.6,21.6,48.2,48.2,48.2h137.9V328h-63.3v-72h63.3v-54.9
		c0-62.4,37.2-96.9,94.1-96.9c27.3,0,55.8,4.9,55.8,4.9v61.3h-31.4c-30.9,0-40.6,19.2-40.6,38.9V256H364l-11,72h-58v153h137.9
		c26.6,0,48.2-21.6,48.2-48.2V79.2C481,52.6,459.4,31,432.8,31z"/>
</g>
</svg>
