<svg id="Layer_1" data-name="Layer 1" xmlns="http://www.w3.org/2000/svg" viewBox="0 0 122.88 122.88"><title>persona</title><path d="M61.44,0a61.43,61.43,0,0,1,43.44,104.88,59.25,59.25,0,0,1-43.44,18A61.44,61.44,0,0,1,61.44,0Zm-32,36.5c14.4-15.87,31-24.5,43.44-10.38a13,13,0,0,1,8.63,3.54c5.91,5.54,6,16.65,2.32,24.09v1.9a4.57,4.57,0,0,1,1.86,1.82l.07.11a9.4,9.4,0,0,1,1.06,3.58,15.72,15.72,0,0,1-.08,3.93v.06c-.5,3.2-2,6.23-4.66,7.22l-.2.2c-2.77,2.89-8.38,8.73-9.2,12.78-.3,1.48.4,2.71,3,3.24,3.53.71,6.75,1.2,9.52,1.62,9.62,1.44,14.18,2.13,15.75,9.37a54.92,54.92,0,1,0-79,0c1.55-7.15,6.05-7.85,15.49-9.29,2.33-.36,5-.77,8-1.36,4-.79,5.19-2.27,4.85-4-.66-3.41-5.19-8.09-8.63-11.65l-.87-.89c-2.81-1-4.52-3.69-5.18-6.66a13.31,13.31,0,0,1-.24-4.07,9.26,9.26,0,0,1,1.11-3.73,6,6,0,0,1,1.05-1.36L36,55.65c-.56-6.25,1.08-17.1-6.53-19.15ZM71.77,37c-7.38,4.64-11.08,3.54-17.16,4.54-5,.83-9.2,2.58-11.74,5.66q0,.48,0,1v8.94a1.9,1.9,0,0,1-1.9,1.9h-.17a1.32,1.32,0,0,0-1,.76A5.65,5.65,0,0,0,39.14,62a9.19,9.19,0,0,0,.19,2.89c.39,1.78,1.28,3.38,2.65,3.87a1.85,1.85,0,0,1,1.16.58l1.25,1.29c3.78,3.91,8.75,9,9.63,13.55.77,3.94-1.05,7.14-7.85,8.47-3.12.61-5.83,1-8.19,1.39-8.16,1.25-11.7,1.79-12.64,8.78a54.93,54.93,0,0,0,72.2,0c-1-7.06-4.56-7.61-12.9-8.86-2.69-.41-5.84-.88-9.7-1.67-5.35-1.09-6.71-4-6-7.7h0C70,79.46,76.13,73.1,79.16,70l.58-.61a2,2,0,0,1,1.12-.57c1.11-.47,1.83-2.25,2.13-4.2v0a11.67,11.67,0,0,0,.07-2.94,5.51,5.51,0,0,0-.59-2.11l0-.08c-.13-.21-.25-.33-.35-.33a1.89,1.89,0,0,1-2-1.74V48.23c0-5.17-2.42-6.95-6.89-10.22l-.25-.18c-.37-.28-.75-.54-1.13-.79Z"/></svg>